<?xml version="1.0" standalone="no"?>
<!DOCTYPE svg PUBLIC "-//W3C//DTD SVG 20010904//EN"
 "http://www.w3.org/TR/2001/REC-SVG-20010904/DTD/svg10.dtd">
<svg version="1.0" xmlns="http://www.w3.org/2000/svg"
 width="279.000000pt" height="279.000000pt" viewBox="0 0 279.000000 279.000000"
 preserveAspectRatio="xMidYMid meet">

<g transform="translate(0.000000,279.000000) scale(0.100000,-0.100000)"
fill="#000000" stroke="none">
<path d="M1250 2784 c-171 -22 -332 -70 -475 -141 -390 -196 -666 -559 -752
-990 -24 -122 -24 -394 0 -516 113 -565 549 -1001 1114 -1114 122 -24 394 -24
516 0 565 113 1001 549 1114 1114 24 122 24 394 0 516 -112 562 -552 1003
-1108 1112 -82 16 -338 28 -409 19z m410 -229 c141 -37 259 -89 378 -168 271
-181 456 -456 522 -778 19 -91 21 -127 17 -284 -4 -154 -8 -195 -32 -285 -90
-346 -304 -610 -621 -769 -188 -94 -369 -136 -579 -135 -132 1 -161 4 -240 28
-178 53 -313 135 -390 237 l-40 53 1 95 c0 79 6 119 37 226 110 390 495 1428
551 1483 18 19 38 26 78 30 47 4 58 1 86 -23 36 -30 20 18 326 -967 102 -329
186 -608 186 -620 0 -31 -38 -68 -71 -68 -29 0 -42 13 -119 120 -56 78 -166
181 -239 224 -89 52 -140 68 -231 73 -47 3 -92 9 -101 14 -29 15 -30 49 -2 77
24 24 28 25 121 19 110 -6 180 -27 290 -88 60 -33 74 -37 68 -23 -62 175 -302
770 -307 761 -4 -6 -52 -138 -107 -292 -126 -352 -242 -711 -273 -837 l-23
-98 23 -24 c33 -35 135 -83 225 -106 101 -25 222 -26 341 -1 391 82 666 335
757 697 19 75 22 115 22 259 0 155 -3 178 -27 260 -110 367 -393 626 -772 706
-33 7 -120 13 -195 12 -111 -1 -152 -5 -234 -27 -361 -94 -631 -365 -734 -733
-24 -89 -27 -113 -26 -263 1 -146 4 -177 27 -265 16 -59 50 -146 83 -212 57
-113 62 -144 27 -157 -29 -12 -53 5 -94 66 -61 89 -126 234 -157 345 -24 90
-26 114 -26 293 -1 214 10 273 75 438 146 368 495 653 884 721 33 6 71 13 85
15 14 3 93 3 175 1 122 -3 169 -8 255 -30z"/>
</g>
</svg>
